<svg width="18" height="18" viewBox="0 0 18 18" fill="none" xmlns="http://www.w3.org/2000/svg">
<g clip-path="url(#clip0_180_927)">
<path d="M4.5 3H3V3.75H4.5V3Z" fill="white"/>
<path d="M15 3H13.5V3.75H15V3Z" fill="white"/>
<path d="M5.25 3.75H3V4.5H5.25V3.75Z" fill="white"/>
<path d="M15 3.75H12.75V4.5H15V3.75Z" fill="white"/>
<path d="M6 4.5H3.75V5.25H6V4.5Z" fill="white"/>
<path d="M14.25 4.5H12V5.25H14.25V4.5Z" fill="white"/>
<path d="M6.75 5.25H4.5V6H6.75V5.25Z" fill="white"/>
<path d="M13.5 5.25H11.25V6H13.5V5.25Z" fill="white"/>
<path d="M7.5 6H5.25V6.75H7.5V6Z" fill="white"/>
<path d="M12.75 6H10.5V6.75H12.75V6Z" fill="white"/>
<path d="M8.25 6.75H6V7.5H8.25V6.75Z" fill="white"/>
<path d="M12 6.75H9.75V7.5H12V6.75Z" fill="white"/>
<path d="M11.25 7.5H6.75V8.25H11.25V7.5Z" fill="white"/>
<path d="M10.5 8.25H7.5V9H10.5V8.25Z" fill="white"/>
<path d="M10.5 9H7.5V9.75H10.5V9Z" fill="white"/>
<path d="M11.25 9.75H6.75V10.5H11.25V9.75Z" fill="white"/>
<path d="M8.25 10.5H6V11.25H8.25V10.5Z" fill="white"/>
<path d="M12 10.5H9.75V11.25H12V10.5Z" fill="white"/>
<path d="M7.5 11.25H5.25V12H7.5V11.25Z" fill="white"/>
<path d="M12.75 11.25H10.5V12H12.75V11.25Z" fill="white"/>
<path d="M6.75 12H4.5V12.75H6.75V12Z" fill="white"/>
<path d="M13.5 12H11.25V12.75H13.5V12Z" fill="white"/>
<path d="M6 12.75H3.75V13.5H6V12.75Z" fill="white"/>
<path d="M14.25 12.75H12V13.5H14.25V12.75Z" fill="white"/>
<path d="M5.25 13.5H3V14.25H5.25V13.5Z" fill="white"/>
<path d="M15 13.5H12.75V14.25H15V13.5Z" fill="white"/>
<path d="M4.5 14.25H3V15H4.5V14.25Z" fill="white"/>
<path d="M15 14.25H13.5V15H15V14.25Z" fill="white"/>
</g>
<defs>
<clipPath id="clip0_180_927">
<rect width="18" height="18" fill="white"/>
</clipPath>
</defs>
</svg>

