<svg width="16" height="16" viewBox="0 0 16 16" fill="none" xmlns="http://www.w3.org/2000/svg">
<g clip-path="url(#clip0_180_258)">
<path d="M3.33333 1.66667H2V2.33334H3.33333V1.66667Z" fill="white"/>
<path d="M14 1.66667H12.6667V2.33334H14V1.66667Z" fill="white"/>
<path d="M4 2.33334H2V3H4V2.33334Z" fill="white"/>
<path d="M14 2.33334H12V3H14V2.33334Z" fill="white"/>
<path d="M4.66667 3.00001H2.66667V3.66667H4.66667V3.00001Z" fill="white"/>
<path d="M13.3333 3.00001H11.3333V3.66667H13.3333V3.00001Z" fill="white"/>
<path d="M5.33333 3.66667H3.33333V4.33334H5.33333V3.66667Z" fill="white"/>
<path d="M12.6667 3.66667H10.6667V4.33334H12.6667V3.66667Z" fill="white"/>
<path d="M6 4.33334H4V5H6V4.33334Z" fill="white"/>
<path d="M12 4.33334H10V5H12V4.33334Z" fill="white"/>
<path d="M6.66667 5.00001H4.66667V5.66667H6.66667V5.00001Z" fill="white"/>
<path d="M11.3333 5.00001H9.33334V5.66667H11.3333V5.00001Z" fill="white"/>
<path d="M7.33333 5.66667H6V6.33334H7.33333V5.66667Z" fill="white"/>
<path d="M10 5.66667H8.66667V6.33334H10V5.66667Z" fill="white"/>
<path d="M9.33333 6.33334H6.66667V7H9.33333V6.33334Z" fill="white"/>
<path d="M9.33333 7.00001H6.66667V7.66667H9.33333V7.00001Z" fill="white"/>
<path d="M10 7.66667H6V8.33334H10V7.66667Z" fill="white"/>
<path d="M7.33333 8.33334H5.33333V9H7.33333V8.33334Z" fill="white"/>
<path d="M10.6667 8.33334H8.66667V9H10.6667V8.33334Z" fill="white"/>
<path d="M6.66667 9.00001H3.33333V9.66667H6.66667V9.00001Z" fill="white"/>
<path d="M12.6667 9.00001H9.33334V9.66667H12.6667V9.00001Z" fill="white"/>
<path d="M6.66667 9.66667H2V10.3333H6.66667V9.66667Z" fill="white"/>
<path d="M14 9.66667H9.33334V10.3333H14V9.66667Z" fill="white"/>
<path d="M3.33333 10.3333H2V11H3.33333V10.3333Z" fill="white"/>
<path d="M6.66667 10.3333H5.33333V11H6.66667V10.3333Z" fill="white"/>
<path d="M10.6667 10.3333H9.33334V11H10.6667V10.3333Z" fill="white"/>
<path d="M14 10.3333H12.6667V11H14V10.3333Z" fill="white"/>
<path d="M2.66667 11H1.33333V11.6667H2.66667V11Z" fill="white"/>
<path d="M7.33333 11H6V11.6667H7.33333V11Z" fill="white"/>
<path d="M10 11H8.66667V11.6667H10V11Z" fill="white"/>
<path d="M14.6667 11H13.3333V11.6667H14.6667V11Z" fill="white"/>
<path d="M2.66667 11.6667H1.33333V12.3333H2.66667V11.6667Z" fill="white"/>
<path d="M7.33333 11.6667H6V12.3333H7.33333V11.6667Z" fill="white"/>
<path d="M10 11.6667H8.66667V12.3333H10V11.6667Z" fill="white"/>
<path d="M14.6667 11.6667H13.3333V12.3333H14.6667V11.6667Z" fill="white"/>
<path d="M2.66667 12.3333H1.33333V13H2.66667V12.3333Z" fill="white"/>
<path d="M7.33333 12.3333H6V13H7.33333V12.3333Z" fill="white"/>
<path d="M10 12.3333H8.66667V13H10V12.3333Z" fill="white"/>
<path d="M14.6667 12.3333H13.3333V13H14.6667V12.3333Z" fill="white"/>
<path d="M3.33333 13H2V13.6667H3.33333V13Z" fill="white"/>
<path d="M6.66667 13H5.33333V13.6667H6.66667V13Z" fill="white"/>
<path d="M10.6667 13H9.33334V13.6667H10.6667V13Z" fill="white"/>
<path d="M14 13H12.6667V13.6667H14V13Z" fill="white"/>
<path d="M6.66667 13.6667H2V14.3333H6.66667V13.6667Z" fill="white"/>
<path d="M14 13.6667H9.33334V14.3333H14V13.6667Z" fill="white"/>
<path d="M5.33333 14.3333H3.33333V15H5.33333V14.3333Z" fill="white"/>
<path d="M12.6667 14.3333H10.6667V15H12.6667V14.3333Z" fill="white"/>
</g>
<defs>
<clipPath id="clip0_180_258">
<rect width="16" height="16" fill="white"/>
</clipPath>
</defs>
</svg>

