<svg width="16" height="16" viewBox="0 0 16 16" fill="none" xmlns="http://www.w3.org/2000/svg">
<g clip-path="url(#clip0_21_5980)">
<path d="M8.66671 0.666626H7.33337V1.33329H8.66671V0.666626Z" fill="#FF5E1D"/>
<path d="M10 1.33325H6V1.99992H10V1.33325Z" fill="#FF5E1D"/>
<path d="M7.33341 2H4.66675V2.66667H7.33341V2Z" fill="#FF5E1D"/>
<path d="M11.3334 2H8.66675V2.66667H11.3334V2Z" fill="#FF5E1D"/>
<path d="M6.66667 2.66663H4V3.33329H6.66667V2.66663Z" fill="#FF5E1D"/>
<path d="M12 2.66663H9.33337V3.33329H12V2.66663Z" fill="#FF5E1D"/>
<path d="M5.33341 3.33325H2.66675V3.99992H5.33341V3.33325Z" fill="#FF5E1D"/>
<path d="M13.3334 3.33325H10.6667V3.99992H13.3334V3.33325Z" fill="#FF5E1D"/>
<path d="M4 4H2V4.66667H4V4Z" fill="#FF5E1D"/>
<path d="M14 4H12V4.66667H14V4Z" fill="#FF5E1D"/>
<path d="M3.33337 4.66663H1.33337V5.33329H3.33337V4.66663Z" fill="#FF5E1D"/>
<path d="M14.6667 4.66663H12.6667V5.33329H14.6667V4.66663Z" fill="#FF5E1D"/>
<path d="M2.66667 5.33325H2V5.99992H2.66667V5.33325Z" fill="#FF5E1D"/>
<path d="M11.3333 5.33325H10V5.99992H11.3333V5.33325Z" fill="#FF5E1D"/>
<path d="M14 5.33325H13.3334V5.99992H14V5.33325Z" fill="#FF5E1D"/>
<path d="M2.66667 6H2V6.66667H2.66667V6Z" fill="#FF5E1D"/>
<path d="M11.3333 6H10V6.66667H11.3333V6Z" fill="#FF5E1D"/>
<path d="M14 6H13.3334V6.66667H14V6Z" fill="#FF5E1D"/>
<path d="M2.66667 6.66663H2V7.33329H2.66667V6.66663Z" fill="#FF5E1D"/>
<path d="M8.66671 6.66663H7.33337V7.33329H8.66671V6.66663Z" fill="#FF5E1D"/>
<path d="M11.3333 6.66663H10V7.33329H11.3333V6.66663Z" fill="#FF5E1D"/>
<path d="M14 6.66663H13.3334V7.33329H14V6.66663Z" fill="#FF5E1D"/>
<path d="M2.66667 7.33325H2V7.99992H2.66667V7.33325Z" fill="#FF5E1D"/>
<path d="M8.66671 7.33325H7.33337V7.99992H8.66671V7.33325Z" fill="#FF5E1D"/>
<path d="M11.3333 7.33325H10V7.99992H11.3333V7.33325Z" fill="#FF5E1D"/>
<path d="M14 7.33325H13.3334V7.99992H14V7.33325Z" fill="#FF5E1D"/>
<path d="M2.66667 8H2V8.66667H2.66667V8Z" fill="#FF5E1D"/>
<path d="M6.00008 8H4.66675V8.66667H6.00008V8Z" fill="#FF5E1D"/>
<path d="M8.66671 8H7.33337V8.66667H8.66671V8Z" fill="#FF5E1D"/>
<path d="M11.3333 8H10V8.66667H11.3333V8Z" fill="#FF5E1D"/>
<path d="M14 8H13.3334V8.66667H14V8Z" fill="#FF5E1D"/>
<path d="M2.66667 8.66663H2V9.33329H2.66667V8.66663Z" fill="#FF5E1D"/>
<path d="M6.00008 8.66663H4.66675V9.33329H6.00008V8.66663Z" fill="#FF5E1D"/>
<path d="M8.66671 8.66663H7.33337V9.33329H8.66671V8.66663Z" fill="#FF5E1D"/>
<path d="M11.3333 8.66663H10V9.33329H11.3333V8.66663Z" fill="#FF5E1D"/>
<path d="M14 8.66663H13.3334V9.33329H14V8.66663Z" fill="#FF5E1D"/>
<path d="M2.66667 9.33325H2V9.99992H2.66667V9.33325Z" fill="#FF5E1D"/>
<path d="M6.00008 9.33325H4.66675V9.99992H6.00008V9.33325Z" fill="#FF5E1D"/>
<path d="M8.66671 9.33325H7.33337V9.99992H8.66671V9.33325Z" fill="#FF5E1D"/>
<path d="M11.3333 9.33325H10V9.99992H11.3333V9.33325Z" fill="#FF5E1D"/>
<path d="M14 9.33325H13.3334V9.99992H14V9.33325Z" fill="#FF5E1D"/>
<path d="M2.66667 10H2V10.6667H2.66667V10Z" fill="#FF5E1D"/>
<path d="M6.00008 10H4.66675V10.6667H6.00008V10Z" fill="#FF5E1D"/>
<path d="M8.66671 10H7.33337V10.6667H8.66671V10Z" fill="#FF5E1D"/>
<path d="M11.3333 10H10V10.6667H11.3333V10Z" fill="#FF5E1D"/>
<path d="M14 10H13.3334V10.6667H14V10Z" fill="#FF5E1D"/>
<path d="M3.33337 10.6666H1.33337V11.3333H3.33337V10.6666Z" fill="#FF5E1D"/>
<path d="M14.6667 10.6666H12.6667V11.3333H14.6667V10.6666Z" fill="#FF5E1D"/>
<path d="M4 11.3333H2V11.9999H4V11.3333Z" fill="#FF5E1D"/>
<path d="M14 11.3333H12V11.9999H14V11.3333Z" fill="#FF5E1D"/>
<path d="M5.33341 12H2.66675V12.6667H5.33341V12Z" fill="#FF5E1D"/>
<path d="M13.3334 12H10.6667V12.6667H13.3334V12Z" fill="#FF5E1D"/>
<path d="M6.66667 12.6666H4V13.3333H6.66667V12.6666Z" fill="#FF5E1D"/>
<path d="M12 12.6666H9.33337V13.3333H12V12.6666Z" fill="#FF5E1D"/>
<path d="M7.33341 13.3333H4.66675V13.9999H7.33341V13.3333Z" fill="#FF5E1D"/>
<path d="M11.3334 13.3333H8.66675V13.9999H11.3334V13.3333Z" fill="#FF5E1D"/>
<path d="M10 14H6V14.6667H10V14Z" fill="#FF5E1D"/>
<path d="M8.66671 14.6666H7.33337V15.3333H8.66671V14.6666Z" fill="#FF5E1D"/>
</g>
<defs>
<clipPath id="clip0_21_5980">
<rect width="16" height="16" fill="white"/>
</clipPath>
</defs>
</svg>

