<svg width="16" height="16" viewBox="0 0 16 16" fill="none" xmlns="http://www.w3.org/2000/svg">
<g clip-path="url(#clip0_21_5744)">
<g clip-path="url(#clip1_21_5744)">
<path d="M9.33329 0.666687H6.66663V1.33335H9.33329V0.666687Z" fill="#FF5E1D"/>
<path d="M10 1.33337H6V2.00004H10V1.33337Z" fill="#FF5E1D"/>
<path d="M7.33325 2H5.33325V2.66667H7.33325V2Z" fill="#FF5E1D"/>
<path d="M10.6666 2H8.66663V2.66667H10.6666V2Z" fill="#FF5E1D"/>
<path d="M6.66659 2.66669H5.33325V3.33335H6.66659V2.66669Z" fill="#FF5E1D"/>
<path d="M10.6666 2.66669H9.33325V3.33335H10.6666V2.66669Z" fill="#FF5E1D"/>
<path d="M6.66659 3.33337H5.33325V4.00004H6.66659V3.33337Z" fill="#FF5E1D"/>
<path d="M10.6666 3.33337H9.33325V4.00004H10.6666V3.33337Z" fill="#FF5E1D"/>
<path d="M6.66659 4H5.33325V4.66667H6.66659V4Z" fill="#FF5E1D"/>
<path d="M10.6666 4H9.33325V4.66667H10.6666V4Z" fill="#FF5E1D"/>
<path d="M6.66659 4.66669H5.33325V5.33335H6.66659V4.66669Z" fill="#FF5E1D"/>
<path d="M4.66667 5.33337H2V6.00004H4.66667V5.33337Z" fill="#FF5E1D"/>
<path d="M6.66659 5.33337H5.33325V6.00004H6.66659V5.33337Z" fill="#FF5E1D"/>
<path d="M13.9999 5.33337H7.33325V6.00004H13.9999V5.33337Z" fill="#FF5E1D"/>
<path d="M4.66658 6H1.33325V6.66667H4.66658V6Z" fill="#FF5E1D"/>
<path d="M6.66659 6H5.33325V6.66667H6.66659V6Z" fill="#FF5E1D"/>
<path d="M14.6666 6H7.33325V6.66667H14.6666V6Z" fill="#FF5E1D"/>
<path d="M2.66663 6.66669H0.666626V7.33335H2.66663V6.66669Z" fill="#FF5E1D"/>
<path d="M6.66659 6.66669H5.33325V7.33335H6.66659V6.66669Z" fill="#FF5E1D"/>
<path d="M15.3333 6.66669H13.3333V7.33335H15.3333V6.66669Z" fill="#FF5E1D"/>
<path d="M1.99996 7.33337H0.666626V8.00004H1.99996V7.33337Z" fill="#FF5E1D"/>
<path d="M6.66659 7.33337H5.33325V8.00004H6.66659V7.33337Z" fill="#FF5E1D"/>
<path d="M10.6666 7.33337H9.33325V8.00004H10.6666V7.33337Z" fill="#FF5E1D"/>
<path d="M15.3333 7.33337H14V8.00004H15.3333V7.33337Z" fill="#FF5E1D"/>
<path d="M1.99996 8H0.666626V8.66667H1.99996V8Z" fill="#FF5E1D"/>
<path d="M6.66659 8H5.33325V8.66667H6.66659V8Z" fill="#FF5E1D"/>
<path d="M10.6666 8H9.33325V8.66667H10.6666V8Z" fill="#FF5E1D"/>
<path d="M15.3333 8H14V8.66667H15.3333V8Z" fill="#FF5E1D"/>
<path d="M2.66663 8.66669H0.666626V9.33335H2.66663V8.66669Z" fill="#FF5E1D"/>
<path d="M10.6666 8.66669H9.33325V9.33335H10.6666V8.66669Z" fill="#FF5E1D"/>
<path d="M15.3333 8.66669H13.3333V9.33335H15.3333V8.66669Z" fill="#FF5E1D"/>
<path d="M8.66659 9.33337H1.33325V10H8.66659V9.33337Z" fill="#FF5E1D"/>
<path d="M10.6666 9.33337H9.33325V10H10.6666V9.33337Z" fill="#FF5E1D"/>
<path d="M14.6666 9.33337H11.3333V10H14.6666V9.33337Z" fill="#FF5E1D"/>
<path d="M8.66667 10H2V10.6667H8.66667V10Z" fill="#FF5E1D"/>
<path d="M10.6666 10H9.33325V10.6667H10.6666V10Z" fill="#FF5E1D"/>
<path d="M13.9999 10H11.3333V10.6667H13.9999V10Z" fill="#FF5E1D"/>
<path d="M10.6666 10.6667H9.33325V11.3334H10.6666V10.6667Z" fill="#FF5E1D"/>
<path d="M6.66659 11.3334H5.33325V12H6.66659V11.3334Z" fill="#FF5E1D"/>
<path d="M10.6666 11.3334H9.33325V12H10.6666V11.3334Z" fill="#FF5E1D"/>
<path d="M6.66659 12H5.33325V12.6667H6.66659V12Z" fill="#FF5E1D"/>
<path d="M10.6666 12H9.33325V12.6667H10.6666V12Z" fill="#FF5E1D"/>
<path d="M6.66659 12.6667H5.33325V13.3334H6.66659V12.6667Z" fill="#FF5E1D"/>
<path d="M10.6666 12.6667H9.33325V13.3334H10.6666V12.6667Z" fill="#FF5E1D"/>
<path d="M7.33325 13.3334H5.33325V14H7.33325V13.3334Z" fill="#FF5E1D"/>
<path d="M10.6666 13.3334H8.66663V14H10.6666V13.3334Z" fill="#FF5E1D"/>
<path d="M10 14H6V14.6667H10V14Z" fill="#FF5E1D"/>
<path d="M9.33329 14.6667H6.66663V15.3334H9.33329V14.6667Z" fill="#FF5E1D"/>
</g>
</g>
<defs>
<clipPath id="clip0_21_5744">
<rect width="16" height="16" fill="white"/>
</clipPath>
<clipPath id="clip1_21_5744">
<rect width="16" height="16" fill="white"/>
</clipPath>
</defs>
</svg>

