<svg width="16" height="16" viewBox="0 0 16 16" fill="none" xmlns="http://www.w3.org/2000/svg">
<g clip-path="url(#clip0_21_5829)">
<path d="M8.66671 1.33337H7.33337V2.00004H8.66671V1.33337Z" fill="#FF5E1D"/>
<path d="M9.33341 2H6.66675V2.66667H9.33341V2Z" fill="#FF5E1D"/>
<path d="M10 2.66675H6V3.33341H10V2.66675Z" fill="#FF5E1D"/>
<path d="M6.66671 3.33337H5.33337V4.00004H6.66671V3.33337Z" fill="#FF5E1D"/>
<path d="M8.66671 3.33337H7.33337V4.00004H8.66671V3.33337Z" fill="#FF5E1D"/>
<path d="M10.6667 3.33337H9.33337V4.00004H10.6667V3.33337Z" fill="#FF5E1D"/>
<path d="M6.00008 4H4.66675V4.66667H6.00008V4Z" fill="#FF5E1D"/>
<path d="M8.66671 4H7.33337V4.66667H8.66671V4Z" fill="#FF5E1D"/>
<path d="M11.3333 4H10V4.66667H11.3333V4Z" fill="#FF5E1D"/>
<path d="M5.33333 4.66675H4V5.33341H5.33333V4.66675Z" fill="#FF5E1D"/>
<path d="M8.66671 4.66675H7.33337V5.33341H8.66671V4.66675Z" fill="#FF5E1D"/>
<path d="M12.0001 4.66675H10.6667V5.33341H12.0001V4.66675Z" fill="#FF5E1D"/>
<path d="M4.66671 5.33337H3.33337V6.00004H4.66671V5.33337Z" fill="#FF5E1D"/>
<path d="M8.66671 5.33337H7.33337V6.00004H8.66671V5.33337Z" fill="#FF5E1D"/>
<path d="M12.6667 5.33337H11.3334V6.00004H12.6667V5.33337Z" fill="#FF5E1D"/>
<path d="M8.66671 6H7.33337V6.66667H8.66671V6Z" fill="#FF5E1D"/>
<path d="M8.66671 6.66675H7.33337V7.33341H8.66671V6.66675Z" fill="#FF5E1D"/>
<path d="M8.66671 7.33337H7.33337V8.00004H8.66671V7.33337Z" fill="#FF5E1D"/>
<path d="M8.66671 8H7.33337V8.66667H8.66671V8Z" fill="#FF5E1D"/>
<path d="M2.66671 8.66675H1.33337V9.33341H2.66671V8.66675Z" fill="#FF5E1D"/>
<path d="M8.66671 8.66675H7.33337V9.33341H8.66671V8.66675Z" fill="#FF5E1D"/>
<path d="M14.6667 8.66675H13.3334V9.33341H14.6667V8.66675Z" fill="#FF5E1D"/>
<path d="M2.66671 9.33337H1.33337V10H2.66671V9.33337Z" fill="#FF5E1D"/>
<path d="M8.66671 9.33337H7.33337V10H8.66671V9.33337Z" fill="#FF5E1D"/>
<path d="M14.6667 9.33337H13.3334V10H14.6667V9.33337Z" fill="#FF5E1D"/>
<path d="M2.66671 10H1.33337V10.6667H2.66671V10Z" fill="#FF5E1D"/>
<path d="M8.66671 10H7.33337V10.6667H8.66671V10Z" fill="#FF5E1D"/>
<path d="M14.6667 10H13.3334V10.6667H14.6667V10Z" fill="#FF5E1D"/>
<path d="M3.33333 10.6667H2V11.3334H3.33333V10.6667Z" fill="#FF5E1D"/>
<path d="M8.66671 10.6667H7.33337V11.3334H8.66671V10.6667Z" fill="#FF5E1D"/>
<path d="M14.0001 10.6667H12.6667V11.3334H14.0001V10.6667Z" fill="#FF5E1D"/>
<path d="M3.33333 11.3334H2V12H3.33333V11.3334Z" fill="#FF5E1D"/>
<path d="M14.0001 11.3334H12.6667V12H14.0001V11.3334Z" fill="#FF5E1D"/>
<path d="M4.00008 12H2.66675V12.6667H4.00008V12Z" fill="#FF5E1D"/>
<path d="M13.3333 12H12V12.6667H13.3333V12Z" fill="#FF5E1D"/>
<path d="M5.33341 12.6667H2.66675V13.3334H5.33341V12.6667Z" fill="#FF5E1D"/>
<path d="M13.3334 12.6667H10.6667V13.3334H13.3334V12.6667Z" fill="#FF5E1D"/>
<path d="M7.33337 13.3334H3.33337V14H7.33337V13.3334Z" fill="#FF5E1D"/>
<path d="M12.6667 13.3334H8.66675V14H12.6667V13.3334Z" fill="#FF5E1D"/>
<path d="M11.3334 14H4.66675V14.6667H11.3334V14Z" fill="#FF5E1D"/>
</g>
<defs>
<clipPath id="clip0_21_5829">
<rect width="16" height="16" fill="white"/>
</clipPath>
</defs>
</svg>

