<svg width="12" height="12" viewBox="0 0 12 12" fill="none" xmlns="http://www.w3.org/2000/svg">
<g clip-path="url(#clip0_180_1758)">
<path fill-rule="evenodd" clip-rule="evenodd" d="M2 6C2 3.79086 3.79086 2 6 2C8.20914 2 10 3.79086 10 6C10 8.20914 8.20914 10 6 10C3.79086 10 2 8.20914 2 6ZM6 1C3.23858 1 1 3.23858 1 6C1 8.76142 3.23858 11 6 11C8.76142 11 11 8.76142 11 6C11 3.23858 8.76142 1 6 1ZM5.15001 4.99465V4.87936C5.15061 4.74218 5.19967 4.59001 5.30913 4.47561C5.41022 4.36994 5.60726 4.25 5.99713 4.25C6.36323 4.25 6.61782 4.42479 6.74765 4.62324C6.8863 4.83516 6.85898 5.01298 6.79318 5.10182C6.71111 5.21261 6.60921 5.31495 6.48606 5.42581C6.4486 5.45953 6.40242 5.49972 6.3529 5.5428L6.35289 5.54281C6.26435 5.61986 6.16515 5.70619 6.08605 5.78145C5.80517 6.04871 5.50009 6.42171 5.50009 7L5.50172 7.25321L6.5017 7.24679L6.5001 6.99863C6.50048 6.82762 6.57058 6.70077 6.77537 6.5059C6.84422 6.4404 6.9061 6.38686 6.9769 6.3256L6.97693 6.32558C7.0293 6.28027 7.08655 6.23074 7.15512 6.16902C7.29771 6.04066 7.45638 5.88653 7.59674 5.69703C7.97579 5.1853 7.88715 4.5384 7.58447 4.07576C7.27297 3.59963 6.70621 3.25 5.99713 3.25C5.38351 3.25 4.90778 3.44857 4.58658 3.78428C4.27393 4.11106 4.15114 4.52279 4.15001 4.87683V4.99465H5.15001ZM5.50171 7.75V8.75194H6.50171V7.75H5.50171Z" fill="#CACDD3"/>
</g>
<defs>
<clipPath id="clip0_180_1758">
<rect width="12" height="12" fill="white"/>
</clipPath>
</defs>
</svg>

