<svg width="18" height="18" viewBox="0 0 18 18" fill="none" xmlns="http://www.w3.org/2000/svg">
<g clip-path="url(#clip0_180_574)">
<path d="M6.75 3.75H5.25V4.5H6.75V3.75Z" fill="white"/>
<path d="M6.75 4.5H4.5V5.25H6.75V4.5Z" fill="white"/>
<path d="M6 5.25H3.75V6H6V5.25Z" fill="white"/>
<path d="M5.25 6H3V6.75H5.25V6Z" fill="white"/>
<path d="M4.5 6.75H2.25V7.5H4.5V6.75Z" fill="white"/>
<path d="M3.75 7.5H1.5V8.25H3.75V7.5Z" fill="white"/>
<path d="M15.75 8.25H0.75V9H15.75V8.25Z" fill="white"/>
<path d="M15.75 9H0.75V9.75H15.75V9Z" fill="white"/>
<path d="M3.75 9.75H1.5V10.5H3.75V9.75Z" fill="white"/>
<path d="M4.5 10.5H2.25V11.25H4.5V10.5Z" fill="white"/>
<path d="M5.25 11.25H3V12H5.25V11.25Z" fill="white"/>
<path d="M6 12H3.75V12.75H6V12Z" fill="white"/>
<path d="M6.75 12.75H4.5V13.5H6.75V12.75Z" fill="white"/>
<path d="M6.75 13.5H5.25V14.25H6.75V13.5Z" fill="white"/>
</g>
<defs>
<clipPath id="clip0_180_574">
<rect width="18" height="18" fill="white"/>
</clipPath>
</defs>
</svg>

