<svg width="16" height="16" viewBox="0 0 16 16" fill="none" xmlns="http://www.w3.org/2000/svg">
<g clip-path="url(#clip0_180_646)">
<path d="M14.6667 1.33334H4V2.00001H14.6667V1.33334Z" fill="white"/>
<path d="M5.33333 2H4V2.66667H5.33333V2Z" fill="white"/>
<path d="M6.66667 2H6V2.66667H6.66667V2Z" fill="white"/>
<path d="M14.6667 2H13.3334V2.66667H14.6667V2Z" fill="white"/>
<path d="M4.66667 2.66669H4V3.33335H4.66667V2.66669Z" fill="white"/>
<path d="M14.6667 2.66669H14V3.33335H14.6667V2.66669Z" fill="white"/>
<path d="M5.33337 3.33334H3.33337V4.00001H5.33337V3.33334Z" fill="white"/>
<path d="M6.66667 3.33334H6V4.00001H6.66667V3.33334Z" fill="white"/>
<path d="M14.6667 3.33334H14V4.00001H14.6667V3.33334Z" fill="white"/>
<path d="M12 4H1.33337V4.66667H12V4Z" fill="white"/>
<path d="M14.6667 4H14V4.66667H14.6667V4Z" fill="white"/>
<path d="M2.66671 4.66669H1.33337V5.33335H2.66671V4.66669Z" fill="white"/>
<path d="M12.0001 4.66669H10.6667V5.33335H12.0001V4.66669Z" fill="white"/>
<path d="M14.6667 4.66669H14V5.33335H14.6667V4.66669Z" fill="white"/>
<path d="M2.00004 5.33334H1.33337V6.00001H2.00004V5.33334Z" fill="white"/>
<path d="M12.6667 5.33334H11.3334V6.00001H12.6667V5.33334Z" fill="white"/>
<path d="M14.6667 5.33334H14V6.00001H14.6667V5.33334Z" fill="white"/>
<path d="M2.00004 6H1.33337V6.66667H2.00004V6Z" fill="white"/>
<path d="M12 6H11.3334V6.66667H12V6Z" fill="white"/>
<path d="M14.6667 6H14V6.66667H14.6667V6Z" fill="white"/>
<path d="M2.00004 6.66669H1.33337V7.33335H2.00004V6.66669Z" fill="white"/>
<path d="M12 6.66669H11.3334V7.33335H12V6.66669Z" fill="white"/>
<path d="M14.6667 6.66669H14V7.33335H14.6667V6.66669Z" fill="white"/>
<path d="M2.00004 7.33334H1.33337V8.00001H2.00004V7.33334Z" fill="white"/>
<path d="M12 7.33334H11.3334V8.00001H12V7.33334Z" fill="white"/>
<path d="M14.6667 7.33334H14V8.00001H14.6667V7.33334Z" fill="white"/>
<path d="M2.00004 8H1.33337V8.66667H2.00004V8Z" fill="white"/>
<path d="M12 8H11.3334V8.66667H12V8Z" fill="white"/>
<path d="M14.6667 8H14V8.66667H14.6667V8Z" fill="white"/>
<path d="M2.00004 8.66669H1.33337V9.33335H2.00004V8.66669Z" fill="white"/>
<path d="M12 8.66669H11.3334V9.33335H12V8.66669Z" fill="white"/>
<path d="M14.6667 8.66669H14V9.33335H14.6667V8.66669Z" fill="white"/>
<path d="M2.00004 9.33334H1.33337V10H2.00004V9.33334Z" fill="white"/>
<path d="M12.6667 9.33334H11.3334V10H12.6667V9.33334Z" fill="white"/>
<path d="M14.6667 9.33334H13.3334V10H14.6667V9.33334Z" fill="white"/>
<path d="M2.00004 10H1.33337V10.6667H2.00004V10Z" fill="white"/>
<path d="M12 10H11.3334V10.6667H12V10Z" fill="white"/>
<path d="M14.6667 10H14V10.6667H14.6667V10Z" fill="white"/>
<path d="M2.00004 10.6667H1.33337V11.3334H2.00004V10.6667Z" fill="white"/>
<path d="M12.6667 10.6667H11.3334V11.3334H12.6667V10.6667Z" fill="white"/>
<path d="M14.6667 10.6667H13.3334V11.3334H14.6667V10.6667Z" fill="white"/>
<path d="M2.00004 11.3333H1.33337V12H2.00004V11.3333Z" fill="white"/>
<path d="M14.6667 11.3333H10.6667V12H14.6667V11.3333Z" fill="white"/>
<path d="M2.00004 12H1.33337V12.6667H2.00004V12Z" fill="white"/>
<path d="M12.6667 12H11.3334V12.6667H12.6667V12Z" fill="white"/>
<path d="M2.00004 12.6667H1.33337V13.3334H2.00004V12.6667Z" fill="white"/>
<path d="M12 12.6667H11.3334V13.3334H12V12.6667Z" fill="white"/>
<path d="M2.66671 13.3333H1.33337V14H2.66671V13.3333Z" fill="white"/>
<path d="M12.0001 13.3333H10.6667V14H12.0001V13.3333Z" fill="white"/>
<path d="M12 14H1.33337V14.6667H12V14Z" fill="white"/>
</g>
<defs>
<clipPath id="clip0_180_646">
<rect width="16" height="16" fill="white"/>
</clipPath>
</defs>
</svg>

