<svg width="16" height="16" viewBox="0 0 16 16" fill="none" xmlns="http://www.w3.org/2000/svg">
<g clip-path="url(#clip0_180_467)">
<path d="M6 1.33334H2V2H6V1.33334Z" fill="#1A1A1A"/>
<path d="M14 1.33334H10V2H14V1.33334Z" fill="#1A1A1A"/>
<path d="M6.00001 2H1.33334V2.66667H6.00001V2Z" fill="#1A1A1A"/>
<path d="M14.6667 2H10V2.66667H14.6667V2Z" fill="#1A1A1A"/>
<path d="M2.66668 2.66667H1.33334V3.33334H2.66668V2.66667Z" fill="#1A1A1A"/>
<path d="M14.6667 2.66667H13.3333V3.33334H14.6667V2.66667Z" fill="#1A1A1A"/>
<path d="M2.66668 3.33334H1.33334V4H2.66668V3.33334Z" fill="#1A1A1A"/>
<path d="M14.6667 3.33334H13.3333V4H14.6667V3.33334Z" fill="#1A1A1A"/>
<path d="M2.66668 4H1.33334V4.66667H2.66668V4Z" fill="#1A1A1A"/>
<path d="M11.3334 4H4.66669V4.66667H11.3334V4Z" fill="#1A1A1A"/>
<path d="M14.6667 4H13.3333V4.66667H14.6667V4Z" fill="#1A1A1A"/>
<path d="M2.66668 4.66667H1.33334V5.33334H2.66668V4.66667Z" fill="#1A1A1A"/>
<path d="M12 4.66667H4V5.33334H12V4.66667Z" fill="#1A1A1A"/>
<path d="M14.6667 4.66667H13.3333V5.33334H14.6667V4.66667Z" fill="#1A1A1A"/>
<path d="M2.66668 5.33334H1.33334V6H2.66668V5.33334Z" fill="#1A1A1A"/>
<path d="M5.33333 5.33334H4V6H5.33333V5.33334Z" fill="#1A1A1A"/>
<path d="M12 5.33334H10.6667V6H12V5.33334Z" fill="#1A1A1A"/>
<path d="M14.6667 5.33334H13.3333V6H14.6667V5.33334Z" fill="#1A1A1A"/>
<path d="M5.33333 6H4V6.66667H5.33333V6Z" fill="#1A1A1A"/>
<path d="M12 6H10.6667V6.66667H12V6Z" fill="#1A1A1A"/>
<path d="M5.33333 6.66667H4V7.33334H5.33333V6.66667Z" fill="#1A1A1A"/>
<path d="M12 6.66667H10.6667V7.33334H12V6.66667Z" fill="#1A1A1A"/>
<path d="M5.33333 7.33334H4V8H5.33333V7.33334Z" fill="#1A1A1A"/>
<path d="M12 7.33334H10.6667V8H12V7.33334Z" fill="#1A1A1A"/>
<path d="M5.33333 8H4V8.66667H5.33333V8Z" fill="#1A1A1A"/>
<path d="M12 8H10.6667V8.66667H12V8Z" fill="#1A1A1A"/>
<path d="M5.33333 8.66667H4V9.33334H5.33333V8.66667Z" fill="#1A1A1A"/>
<path d="M12 8.66667H10.6667V9.33334H12V8.66667Z" fill="#1A1A1A"/>
<path d="M5.33333 9.33334H4V10H5.33333V9.33334Z" fill="#1A1A1A"/>
<path d="M12 9.33334H10.6667V10H12V9.33334Z" fill="#1A1A1A"/>
<path d="M2.66668 10H1.33334V10.6667H2.66668V10Z" fill="#1A1A1A"/>
<path d="M5.33333 10H4V10.6667H5.33333V10Z" fill="#1A1A1A"/>
<path d="M12 10H10.6667V10.6667H12V10Z" fill="#1A1A1A"/>
<path d="M14.6667 10H13.3333V10.6667H14.6667V10Z" fill="#1A1A1A"/>
<path d="M2.66668 10.6667H1.33334V11.3333H2.66668V10.6667Z" fill="#1A1A1A"/>
<path d="M12 10.6667H4V11.3333H12V10.6667Z" fill="#1A1A1A"/>
<path d="M14.6667 10.6667H13.3333V11.3333H14.6667V10.6667Z" fill="#1A1A1A"/>
<path d="M2.66668 11.3333H1.33334V12H2.66668V11.3333Z" fill="#1A1A1A"/>
<path d="M11.3334 11.3333H4.66669V12H11.3334V11.3333Z" fill="#1A1A1A"/>
<path d="M14.6667 11.3333H13.3333V12H14.6667V11.3333Z" fill="#1A1A1A"/>
<path d="M2.66668 12H1.33334V12.6667H2.66668V12Z" fill="#1A1A1A"/>
<path d="M14.6667 12H13.3333V12.6667H14.6667V12Z" fill="#1A1A1A"/>
<path d="M2.66668 12.6667H1.33334V13.3333H2.66668V12.6667Z" fill="#1A1A1A"/>
<path d="M14.6667 12.6667H13.3333V13.3333H14.6667V12.6667Z" fill="#1A1A1A"/>
<path d="M6.00001 13.3333H1.33334V14H6.00001V13.3333Z" fill="#1A1A1A"/>
<path d="M14.6667 13.3333H10V14H14.6667V13.3333Z" fill="#1A1A1A"/>
<path d="M6 14H2V14.6667H6V14Z" fill="#1A1A1A"/>
<path d="M14 14H10V14.6667H14V14Z" fill="#1A1A1A"/>
</g>
<defs>
<clipPath id="clip0_180_467">
<rect width="16" height="16" fill="white"/>
</clipPath>
</defs>
</svg>

