<svg width="16" height="16" viewBox="0 0 16 16" fill="none" xmlns="http://www.w3.org/2000/svg">
<g clip-path="url(#clip0_180_2102)">
<path d="M10.6667 1.33337H5.33337V2.00004H10.6667V1.33337Z" fill="#FF5E1D"/>
<path d="M14 3.33337H2V4.00004H14V3.33337Z" fill="#FF5E1D"/>
<path d="M12.6667 5.33337H3.33337V6.00004H12.6667V5.33337Z" fill="#FF5E1D"/>
<path d="M5.33337 6H3.33337V6.66667H5.33337V6Z" fill="#FF5E1D"/>
<path d="M12.6666 6H10.6666V6.66667H12.6666V6Z" fill="#FF5E1D"/>
<path d="M4.66671 6.66675H3.33337V7.33341H4.66671V6.66675Z" fill="#FF5E1D"/>
<path d="M12.6667 6.66675H11.3334V7.33341H12.6667V6.66675Z" fill="#FF5E1D"/>
<path d="M4.66671 7.33337H3.33337V8.00004H4.66671V7.33337Z" fill="#FF5E1D"/>
<path d="M12.6667 7.33337H11.3334V8.00004H12.6667V7.33337Z" fill="#FF5E1D"/>
<path d="M4.66671 8H3.33337V8.66667H4.66671V8Z" fill="#FF5E1D"/>
<path d="M12.6667 8H11.3334V8.66667H12.6667V8Z" fill="#FF5E1D"/>
<path d="M4.66671 8.66675H3.33337V9.33341H4.66671V8.66675Z" fill="#FF5E1D"/>
<path d="M12.6667 8.66675H11.3334V9.33341H12.6667V8.66675Z" fill="#FF5E1D"/>
<path d="M4.66671 9.33337H3.33337V10H4.66671V9.33337Z" fill="#FF5E1D"/>
<path d="M12.6667 9.33337H11.3334V10H12.6667V9.33337Z" fill="#FF5E1D"/>
<path d="M4.66671 10H3.33337V10.6667H4.66671V10Z" fill="#FF5E1D"/>
<path d="M12.6667 10H11.3334V10.6667H12.6667V10Z" fill="#FF5E1D"/>
<path d="M4.66671 10.6667H3.33337V11.3334H4.66671V10.6667Z" fill="#FF5E1D"/>
<path d="M12.6667 10.6667H11.3334V11.3334H12.6667V10.6667Z" fill="#FF5E1D"/>
<path d="M4.66671 11.3334H3.33337V12H4.66671V11.3334Z" fill="#FF5E1D"/>
<path d="M12.6667 11.3334H11.3334V12H12.6667V11.3334Z" fill="#FF5E1D"/>
<path d="M4.66671 12H3.33337V12.6667H4.66671V12Z" fill="#FF5E1D"/>
<path d="M12.6667 12H11.3334V12.6667H12.6667V12Z" fill="#FF5E1D"/>
<path d="M4.66671 12.6667H3.33337V13.3334H4.66671V12.6667Z" fill="#FF5E1D"/>
<path d="M12.6667 12.6667H11.3334V13.3334H12.6667V12.6667Z" fill="#FF5E1D"/>
<path d="M5.33337 13.3334H3.33337V14H5.33337V13.3334Z" fill="#FF5E1D"/>
<path d="M12.6666 13.3334H10.6666V14H12.6666V13.3334Z" fill="#FF5E1D"/>
<path d="M12 14H4V14.6667H12V14Z" fill="#FF5E1D"/>
</g>
<defs>
<clipPath id="clip0_180_2102">
<rect width="16" height="16" fill="white"/>
</clipPath>
</defs>
</svg>

