<svg width="18" height="18" viewBox="0 0 18 18" fill="none" xmlns="http://www.w3.org/2000/svg">
<g clip-path="url(#clip0_180_705)">
<g clip-path="url(#clip1_180_705)">
<path d="M11.25 0.75H6.75V1.5H11.25V0.75Z" fill="white"/>
<path d="M13.5 1.5H5.25V2.25H13.5V1.5Z" fill="white"/>
<path d="M3 2.25H1.5V3H3V2.25Z" fill="white"/>
<path d="M6.75 2.25H3.75V3H6.75V2.25Z" fill="white"/>
<path d="M14.25 2.25H11.25V3H14.25V2.25Z" fill="white"/>
<path d="M5.25 3H1.5V3.75H5.25V3Z" fill="white"/>
<path d="M15 3H12.75V3.75H15V3Z" fill="white"/>
<path d="M4.5 3.75H1.5V4.5H4.5V3.75Z" fill="white"/>
<path d="M9.75 3.75H8.25V4.5H9.75V3.75Z" fill="white"/>
<path d="M15.75 3.75H13.5V4.5H15.75V3.75Z" fill="white"/>
<path d="M5.25 4.5H1.5V5.25H5.25V4.5Z" fill="white"/>
<path d="M9.75 4.5H8.25V5.25H9.75V4.5Z" fill="white"/>
<path d="M15.75 4.5H14.25V5.25H15.75V4.5Z" fill="white"/>
<path d="M5.25 5.25H1.5V6H5.25V5.25Z" fill="white"/>
<path d="M9.75 5.25H8.25V6H9.75V5.25Z" fill="white"/>
<path d="M16.5 5.25H15V6H16.5V5.25Z" fill="white"/>
<path d="M9.75 6H8.25V6.75H9.75V6Z" fill="white"/>
<path d="M16.5 6H15V6.75H16.5V6Z" fill="white"/>
<path d="M9.75 6.75H8.25V7.5H9.75V6.75Z" fill="white"/>
<path d="M17.25 6.75H15.75V7.5H17.25V6.75Z" fill="white"/>
<path d="M9.75 7.5H8.25V8.25H9.75V7.5Z" fill="white"/>
<path d="M17.25 7.5H15.75V8.25H17.25V7.5Z" fill="white"/>
<path d="M2.25 8.25H0.75V9H2.25V8.25Z" fill="white"/>
<path d="M9.75 8.25H8.25V9H9.75V8.25Z" fill="white"/>
<path d="M17.25 8.25H15.75V9H17.25V8.25Z" fill="white"/>
<path d="M2.25 9H0.75V9.75H2.25V9Z" fill="white"/>
<path d="M10.5 9H8.25V9.75H10.5V9Z" fill="white"/>
<path d="M17.25 9H15.75V9.75H17.25V9Z" fill="white"/>
<path d="M2.25 9.75H0.75V10.5H2.25V9.75Z" fill="white"/>
<path d="M11.25 9.75H9V10.5H11.25V9.75Z" fill="white"/>
<path d="M17.25 9.75H15.75V10.5H17.25V9.75Z" fill="white"/>
<path d="M2.25 10.5H0.75V11.25H2.25V10.5Z" fill="white"/>
<path d="M12 10.5H9.75V11.25H12V10.5Z" fill="white"/>
<path d="M17.25 10.5H15.75V11.25H17.25V10.5Z" fill="white"/>
<path d="M3 11.25H1.5V12H3V11.25Z" fill="white"/>
<path d="M12.75 11.25H10.5V12H12.75V11.25Z" fill="white"/>
<path d="M16.5 11.25H15V12H16.5V11.25Z" fill="white"/>
<path d="M3 12H1.5V12.75H3V12Z" fill="white"/>
<path d="M12.75 12H11.25V12.75H12.75V12Z" fill="white"/>
<path d="M16.5 12H15V12.75H16.5V12Z" fill="white"/>
<path d="M3.75 12.75H2.25V13.5H3.75V12.75Z" fill="white"/>
<path d="M15.75 12.75H14.25V13.5H15.75V12.75Z" fill="white"/>
<path d="M4.5 13.5H2.25V14.25H4.5V13.5Z" fill="white"/>
<path d="M15.75 13.5H13.5V14.25H15.75V13.5Z" fill="white"/>
<path d="M5.25 14.25H3V15H5.25V14.25Z" fill="white"/>
<path d="M15 14.25H12.75V15H15V14.25Z" fill="white"/>
<path d="M6.75 15H3.75V15.75H6.75V15Z" fill="white"/>
<path d="M14.25 15H11.25V15.75H14.25V15Z" fill="white"/>
<path d="M13.5 15.75H4.5V16.5H13.5V15.75Z" fill="white"/>
<path d="M11.25 16.5H6.75V17.25H11.25V16.5Z" fill="white"/>
</g>
</g>
<defs>
<clipPath id="clip0_180_705">
<rect width="18" height="18" fill="white"/>
</clipPath>
<clipPath id="clip1_180_705">
<rect width="18" height="18" fill="white"/>
</clipPath>
</defs>
</svg>

