<svg width="16" height="16" viewBox="0 0 16 16" fill="none" xmlns="http://www.w3.org/2000/svg">
<g clip-path="url(#clip0_180_362)">
<path d="M14 1.33334H2V2H14V1.33334Z" fill="white"/>
<path d="M14.6667 2H1.33333V2.66667H14.6667V2Z" fill="white"/>
<path d="M2.66666 2.66667H1.33333V3.33334H2.66666V2.66667Z" fill="white"/>
<path d="M14.6667 2.66667H13.3333V3.33334H14.6667V2.66667Z" fill="white"/>
<path d="M2.66666 3.33334H1.33333V4H2.66666V3.33334Z" fill="white"/>
<path d="M14.6667 3.33334H13.3333V4H14.6667V3.33334Z" fill="white"/>
<path d="M2.66666 4H1.33333V4.66667H2.66666V4Z" fill="white"/>
<path d="M14.6667 4H13.3333V4.66667H14.6667V4Z" fill="white"/>
<path d="M3.33333 4.66667H1.33333V5.33334H3.33333V4.66667Z" fill="white"/>
<path d="M14.6667 4.66667H12.6667V5.33334H14.6667V4.66667Z" fill="white"/>
<path d="M14.6667 5.33334H1.33333V6H14.6667V5.33334Z" fill="white"/>
<path d="M3.33333 6H1.33333V6.66667H3.33333V6Z" fill="white"/>
<path d="M6.66666 6H4.66666V6.66667H6.66666V6Z" fill="white"/>
<path d="M14.6667 6H12.6667V6.66667H14.6667V6Z" fill="white"/>
<path d="M2.66666 6.66667H1.33333V7.33334H2.66666V6.66667Z" fill="white"/>
<path d="M5.99999 6.66667H5.33333V7.33334H5.99999V6.66667Z" fill="white"/>
<path d="M14.6667 6.66667H13.3333V7.33334H14.6667V6.66667Z" fill="white"/>
<path d="M2.66666 7.33334H1.33333V8H2.66666V7.33334Z" fill="white"/>
<path d="M5.99999 7.33334H5.33333V8H5.99999V7.33334Z" fill="white"/>
<path d="M14.6667 7.33334H13.3333V8H14.6667V7.33334Z" fill="white"/>
<path d="M2.66666 8H1.33333V8.66667H2.66666V8Z" fill="white"/>
<path d="M5.99999 8H5.33333V8.66667H5.99999V8Z" fill="white"/>
<path d="M14.6667 8H13.3333V8.66667H14.6667V8Z" fill="white"/>
<path d="M2.66666 8.66667H1.33333V9.33334H2.66666V8.66667Z" fill="white"/>
<path d="M5.99999 8.66667H5.33333V9.33334H5.99999V8.66667Z" fill="white"/>
<path d="M14.6667 8.66667H13.3333V9.33334H14.6667V8.66667Z" fill="white"/>
<path d="M2.66666 9.33334H1.33333V10H2.66666V9.33334Z" fill="white"/>
<path d="M5.99999 9.33334H5.33333V10H5.99999V9.33334Z" fill="white"/>
<path d="M14.6667 9.33334H13.3333V10H14.6667V9.33334Z" fill="white"/>
<path d="M2.66666 10H1.33333V10.6667H2.66666V10Z" fill="white"/>
<path d="M5.99999 10H5.33333V10.6667H5.99999V10Z" fill="white"/>
<path d="M14.6667 10H13.3333V10.6667H14.6667V10Z" fill="white"/>
<path d="M2.66666 10.6667H1.33333V11.3333H2.66666V10.6667Z" fill="white"/>
<path d="M5.99999 10.6667H5.33333V11.3333H5.99999V10.6667Z" fill="white"/>
<path d="M14.6667 10.6667H13.3333V11.3333H14.6667V10.6667Z" fill="white"/>
<path d="M2.66666 11.3333H1.33333V12H2.66666V11.3333Z" fill="white"/>
<path d="M5.99999 11.3333H5.33333V12H5.99999V11.3333Z" fill="white"/>
<path d="M14.6667 11.3333H13.3333V12H14.6667V11.3333Z" fill="white"/>
<path d="M2.66666 12H1.33333V12.6667H2.66666V12Z" fill="white"/>
<path d="M5.99999 12H5.33333V12.6667H5.99999V12Z" fill="white"/>
<path d="M14.6667 12H13.3333V12.6667H14.6667V12Z" fill="white"/>
<path d="M2.66666 12.6667H1.33333V13.3333H2.66666V12.6667Z" fill="white"/>
<path d="M6.66666 12.6667H4.66666V13.3333H6.66666V12.6667Z" fill="white"/>
<path d="M14.6667 12.6667H13.3333V13.3333H14.6667V12.6667Z" fill="white"/>
<path d="M14.6667 13.3333H1.33333V14H14.6667V13.3333Z" fill="white"/>
<path d="M14 14H2V14.6667H14V14Z" fill="white"/>
</g>
<defs>
<clipPath id="clip0_180_362">
<rect width="16" height="16" fill="white"/>
</clipPath>
</defs>
</svg>

