<svg width="14" height="14" viewBox="0 0 14 14" fill="none" xmlns="http://www.w3.org/2000/svg">
<path fill-rule="evenodd" clip-rule="evenodd" d="M9.23318 3.45859C7.63854 1.86395 5.05311 1.86395 3.45847 3.45859C1.86383 5.05324 1.86383 7.63866 3.45847 9.2333C5.05311 10.8279 7.63854 10.8279 9.23318 9.2333C10.8278 7.63866 10.8278 5.05324 9.23318 3.45859ZM2.63351 2.63364C4.68377 0.583384 8.00788 0.583384 10.0581 2.63364C11.969 4.54447 12.0989 7.5618 10.448 9.62312L12.533 11.7082L11.7081 12.5331L9.623 10.4481C7.56168 12.099 4.54435 11.9691 2.63351 10.0583C0.583262 8.00801 0.583262 4.68389 2.63351 2.63364Z" fill="black"/>
</svg>

