<svg width="18" height="18" viewBox="0 0 18 18" fill="none" xmlns="http://www.w3.org/2000/svg">
<g clip-path="url(#clip0_180_812)">
<path d="M7.5 0.75H6.75V1.5H7.5V0.75Z" fill="white"/>
<path d="M11.25 0.75H10.5V1.5H11.25V0.75Z" fill="white"/>
<path d="M8.25 1.5H5.25V2.25H8.25V1.5Z" fill="white"/>
<path d="M12.75 1.5H9.75V2.25H12.75V1.5Z" fill="white"/>
<path d="M14.25 2.25H3.75V3H14.25V2.25Z" fill="white"/>
<path d="M5.25 3H3V3.75H5.25V3Z" fill="white"/>
<path d="M10.5 3H7.5V3.75H10.5V3Z" fill="white"/>
<path d="M15 3H12.75V3.75H15V3Z" fill="white"/>
<path d="M4.5 3.75H3V4.5H4.5V3.75Z" fill="white"/>
<path d="M15 3.75H13.5V4.5H15V3.75Z" fill="white"/>
<path d="M4.5 4.5H3V5.25H4.5V4.5Z" fill="white"/>
<path d="M15 4.5H13.5V5.25H15V4.5Z" fill="white"/>
<path d="M4.5 5.25H3V6H4.5V5.25Z" fill="white"/>
<path d="M15 5.25H13.5V6H15V5.25Z" fill="white"/>
<path d="M4.5 6H1.5V6.75H4.5V6Z" fill="white"/>
<path d="M11.25 6H6.75V6.75H11.25V6Z" fill="white"/>
<path d="M16.5 6H13.5V6.75H16.5V6Z" fill="white"/>
<path d="M3 6.75H0.75V7.5H3V6.75Z" fill="white"/>
<path d="M12 6.75H6V7.5H12V6.75Z" fill="white"/>
<path d="M17.25 6.75H15V7.5H17.25V6.75Z" fill="white"/>
<path d="M2.25 7.5H0.75V8.25H2.25V7.5Z" fill="white"/>
<path d="M7.5 7.5H6V8.25H7.5V7.5Z" fill="white"/>
<path d="M12 7.5H10.5V8.25H12V7.5Z" fill="white"/>
<path d="M17.25 7.5H15.75V8.25H17.25V7.5Z" fill="white"/>
<path d="M2.25 8.25H0.75V9H2.25V8.25Z" fill="white"/>
<path d="M7.5 8.25H6V9H7.5V8.25Z" fill="white"/>
<path d="M12 8.25H10.5V9H12V8.25Z" fill="white"/>
<path d="M17.25 8.25H15.75V9H17.25V8.25Z" fill="white"/>
<path d="M2.25 9H0.75V9.75H2.25V9Z" fill="white"/>
<path d="M7.5 9H6V9.75H7.5V9Z" fill="white"/>
<path d="M12 9H10.5V9.75H12V9Z" fill="white"/>
<path d="M17.25 9H15.75V9.75H17.25V9Z" fill="white"/>
<path d="M3 9.75H0.75V10.5H3V9.75Z" fill="white"/>
<path d="M7.5 9.75H6V10.5H7.5V9.75Z" fill="white"/>
<path d="M12 9.75H10.5V10.5H12V9.75Z" fill="white"/>
<path d="M17.25 9.75H15V10.5H17.25V9.75Z" fill="white"/>
<path d="M4.5 10.5H0.75V11.25H4.5V10.5Z" fill="white"/>
<path d="M12 10.5H6V11.25H12V10.5Z" fill="white"/>
<path d="M17.25 10.5H13.5V11.25H17.25V10.5Z" fill="white"/>
<path d="M4.5 11.25H3V12H4.5V11.25Z" fill="white"/>
<path d="M11.25 11.25H6.75V12H11.25V11.25Z" fill="white"/>
<path d="M15 11.25H13.5V12H15V11.25Z" fill="white"/>
<path d="M4.5 12H3V12.75H4.5V12Z" fill="white"/>
<path d="M15 12H13.5V12.75H15V12Z" fill="white"/>
<path d="M4.5 12.75H3V13.5H4.5V12.75Z" fill="white"/>
<path d="M15 12.75H13.5V13.5H15V12.75Z" fill="white"/>
<path d="M4.5 13.5H3V14.25H4.5V13.5Z" fill="white"/>
<path d="M15 13.5H13.5V14.25H15V13.5Z" fill="white"/>
<path d="M5.25 14.25H3V15H5.25V14.25Z" fill="white"/>
<path d="M11.25 14.25H6.75V15H11.25V14.25Z" fill="white"/>
<path d="M15 14.25H12.75V15H15V14.25Z" fill="white"/>
<path d="M14.25 15H3.75V15.75H14.25V15Z" fill="white"/>
<path d="M7.5 15.75H5.25V16.5H7.5V15.75Z" fill="white"/>
<path d="M12.75 15.75H10.5V16.5H12.75V15.75Z" fill="white"/>
</g>
<defs>
<clipPath id="clip0_180_812">
<rect width="18" height="18" fill="white"/>
</clipPath>
</defs>
</svg>

